<svg width="21" height="21" viewBox="0 0 21 21" fill="none" xmlns="http://www.w3.org/2000/svg">
<path d="M15.0773 4.51172C11.8062 4.51172 9.15474 7.18172 9.15474 10.4751C9.15474 13.7685 11.8064 16.4383 15.0773 16.4383C18.3481 16.4383 21 13.7685 21 10.4751C21 7.18172 18.3483 4.51172 15.0773 4.51172ZM5.61909 4.86104C3.98357 4.86104 2.65772 7.37429 2.65772 10.4751H2.65752C2.65752 13.5751 3.98337 16.0892 5.61889 16.0892C7.25441 16.0892 8.58025 13.5751 8.58025 10.4751C8.58025 7.37509 7.25461 4.86104 5.61909 4.86104ZM1.04152 5.44579C0.466431 5.44579 0 7.69745 0 10.4751C0 13.2519 0.466228 15.5044 1.04152 15.5044C1.61681 15.5044 2.08284 13.2525 2.08284 10.4751C2.08284 7.69765 1.61661 5.44579 1.04152 5.44579Z" fill="#F6931A"/>
</svg>
