<svg width="30" height="30" viewBox="0 0 30 30" fill="none" xmlns="http://www.w3.org/2000/svg">
<path d="M29.8769 22.3123C27.3649 24.1539 24.9296 25.2696 22.5335 26C21.9402 25.2045 21.4166 24.3548 20.9626 23.4639C21.8233 23.1432 22.6527 22.7477 23.4414 22.2811C23.2371 22.1302 23.0337 21.9723 22.835 21.8113C18.12 23.9974 12.9361 23.9974 8.16456 21.8113C7.96633 21.9733 7.76389 22.1302 7.55677 22.2811C8.33988 22.7422 9.16833 23.1395 10.0328 23.4611C9.57882 24.3548 9.05098 25.2017 8.4605 25.9986C6.06724 25.2669 3.63377 24.1511 1.12316 22.3123C0.609813 16.9234 1.63697 11.4552 5.42252 5.84614C7.30057 4.98363 9.30953 4.35602 11.4111 4C11.6705 4.45557 11.9782 5.07034 12.1857 5.55848C14.3756 5.22954 16.5861 5.22954 18.8171 5.55848C19.0247 5.07034 19.3263 4.45557 19.5829 4C21.6817 4.35602 23.6892 4.98042 25.5659 5.84155C28.8479 10.6464 30.4786 16.0646 29.8769 22.3123ZM13.2886 16.0912C13.3148 14.4928 12.1399 13.1821 10.6822 13.1821C9.22444 13.1821 8.07432 14.4942 8.07432 16.0912C8.07432 17.6882 9.24922 18.9976 10.6822 18.9976C12.1151 18.9976 13.2914 17.6869 13.2886 16.0912ZM22.9234 16.0912C22.9496 14.4928 21.7747 13.1821 20.3169 13.1821C18.8592 13.1821 17.7091 14.4942 17.7091 16.0912C17.7091 17.6882 18.884 18.9976 20.3169 18.9976C21.7499 18.9976 22.9234 17.6869 22.9234 16.0912Z" fill="white"/>
</svg>
