<svg width="30" height="30" viewBox="0 0 30 30" fill="none" xmlns="http://www.w3.org/2000/svg">
<path d="M26.8896 0.93996C26.7172 0.547245 26.3847 0.24678 25.9757 0.114405L25.9727 0.11346L25.9698 0.112515L25.9638 0.11061L25.9512 0.10671L25.9244 0.0987447C25.9057 0.0933447 25.8853 0.0878396 25.8634 0.0823046C25.8196 0.0712346 25.7694 0.0601048 25.713 0.0497848C25.5999 0.0291148 25.4625 0.0118047 25.3005 0.00418472C24.9753 -0.0111153 24.5587 0.0128697 24.0473 0.12081C23.1944 0.300795 22.0872 0.71196 20.6972 1.55446C20.6064 1.60953 20.5143 1.66644 20.421 1.72524C20.3276 1.70341 20.2343 1.68232 20.1407 1.662C17.6061 1.11124 14.9825 1.11124 12.4477 1.662C12.3542 1.68234 12.2607 1.70341 12.1674 1.72526C12.0741 1.66644 11.982 1.60953 11.8911 1.55446C10.4996 0.711525 9.38987 0.300435 8.53484 0.120585C8.02222 0.0127797 7.60471 -0.0110703 7.27926 0.0041697C7.11704 0.0117597 6.97966 0.0289647 6.86677 0.0494847C6.81042 0.0597297 6.76042 0.0707549 6.71676 0.0817049C6.69494 0.0871799 6.67472 0.0926398 6.65609 0.0979648L6.62938 0.10584L6.61694 0.109665L6.61094 0.111555L6.608 0.112485L6.60509 0.113415C6.19259 0.245955 5.85744 0.549345 5.68547 0.945915C5.04489 2.4231 4.87485 4.05201 5.18336 5.61459C5.19836 5.69051 5.21448 5.76627 5.23173 5.84187C5.16559 5.93059 5.10133 6.02052 5.03896 6.11158C4.07694 7.51634 3.56525 9.19186 3.58923 10.9124C3.59153 14.5972 4.7312 17.1208 6.65859 18.7448C7.7496 19.6639 9.01588 20.2266 10.2885 20.5812C10.4341 20.6219 10.5799 20.6596 10.7254 20.695C10.7042 20.7648 10.6844 20.8351 10.666 20.9059C10.589 21.2036 10.5379 21.5091 10.5142 21.8192C10.5121 21.8472 10.5107 21.8752 10.5102 21.9033L10.4563 24.6315L10.456 24.6611C10.456 24.6696 10.456 24.6782 10.456 24.6866C10.3582 24.7095 10.2589 24.7264 10.1584 24.7374C9.84901 24.7712 9.53561 24.7465 9.23612 24.6651C8.93661 24.5836 8.65668 24.4468 8.4125 24.2624C8.16831 24.0779 7.96463 23.8491 7.8134 23.5892L7.79782 23.563C7.38148 22.8803 6.8064 22.2959 6.11576 21.8542C5.42511 21.4125 4.63709 21.1254 3.81133 21.0148C2.94285 20.8986 2.13902 21.4692 2.01592 22.2895C1.89282 23.1097 2.49706 23.8689 3.36553 23.9852C3.71237 24.0317 4.04386 24.1522 4.33489 24.3384C4.6225 24.5223 4.86321 24.7655 5.03892 25.05C5.39023 25.6488 5.86201 26.1771 6.42799 26.6047C6.99899 27.0363 7.65459 27.3568 8.35722 27.5479C9.04137 27.7339 9.75677 27.7936 10.4644 27.7238C10.4659 28.0836 10.4669 28.3598 10.4669 28.5C10.4669 29.3284 11.1406 30 11.9716 30H20.6709C21.5018 30 22.1755 29.3284 22.1755 28.5V22.8142C22.2165 22.1703 22.1466 21.5248 21.97 20.9059C21.9457 20.8207 21.9194 20.736 21.8911 20.6519C21.9859 20.6295 22.0807 20.606 22.1755 20.5812C23.485 20.2406 24.7931 19.6836 25.9168 18.7474C27.8549 17.1325 28.997 14.6068 28.9992 10.9124C29.0232 9.19186 28.5115 7.51634 27.5495 6.11158C27.487 6.02037 27.4227 5.93031 27.3563 5.84143C27.3735 5.76598 27.3895 5.69037 27.4045 5.61459C27.7123 4.04901 27.5379 2.41713 26.8896 0.93996Z" fill="#0E0729"/>
</svg>
