<svg width="30" height="30" viewBox="0 0 30 30" fill="none" xmlns="http://www.w3.org/2000/svg">
<g clip-path="url(#clip0_345_3767)">
<path d="M24.3493 11.0014V9.34929C24.3493 6.8697 23.3643 4.49167 21.611 2.73834C19.8576 0.985011 17.4796 0 15 0C12.5204 0 10.1424 0.985011 8.38907 2.73834C6.63573 4.49167 5.65072 6.8697 5.65072 9.34929V11.0014C4.97917 11.2339 4.39503 11.6667 3.97702 12.2414C3.559 12.8162 3.32721 13.5052 3.31287 14.2157V26.4879C3.33388 26.9757 3.45184 27.4544 3.65985 27.8961C3.86786 28.3379 4.16176 28.7337 4.5244 29.0607C4.88704 29.3876 5.31116 29.639 5.77201 29.8003C6.23286 29.9616 6.72122 30.0295 7.20858 30H22.7914C23.2783 30.0295 23.7661 29.9618 24.2266 29.8009C24.687 29.6401 25.1109 29.3892 25.4734 29.0629C25.836 28.7367 26.13 28.3415 26.3384 27.9006C26.5467 27.4596 26.6653 26.9815 26.6872 26.4943V14.2221C26.6741 13.5105 26.4429 12.8201 26.0248 12.2441C25.6067 11.6681 25.0219 11.2343 24.3493 11.0014ZM15 4.67571C16.2394 4.67685 17.4277 5.16954 18.3042 6.04569C19.1808 6.92185 19.674 8.10993 19.6757 9.34929V10.7143H10.3243V9.34929C10.326 8.10993 10.8192 6.92185 11.6958 6.04569C12.5723 5.16954 13.7607 4.67685 15 4.67571Z" fill="white"/>
</g>
<defs>
<clipPath id="clip0_345_3767">
<rect width="30" height="30" fill="white"/>
</clipPath>
</defs>
</svg>
