<svg width="30" height="30" viewBox="0 0 30 30" fill="none" xmlns="http://www.w3.org/2000/svg">
<g clip-path="url(#clip0_345_3782)">
<path d="M15 0C7.47001 0 1.78929 2.70429 1.78929 6.29143C1.78929 9.87857 7.47001 12.5807 15 12.5807C22.53 12.5807 28.2107 9.87643 28.2107 6.29143C28.2107 2.70643 22.53 0 15 0Z" fill="white"/>
<path d="M15 16.5728C10.3706 16.767 5.78356 15.6212 1.78929 13.2728V15C1.78929 18.5871 7.47001 21.2914 15 21.2914C22.53 21.2914 28.2107 18.5871 28.2107 15V13.2728C24.2165 15.6212 19.6294 16.767 15 16.5728Z" fill="white"/>
<path d="M15 25.2857C10.3706 25.4799 5.78356 24.3341 1.78929 21.9857V23.7129C1.78929 27.2957 7.47001 30 15 30C22.53 30 28.2107 27.2957 28.2107 23.7086V21.9814C24.2169 24.3313 19.6298 25.4786 15 25.2857Z" fill="white"/>
</g>
<defs>
<clipPath id="clip0_345_3782">
<rect width="30" height="30" fill="white"/>
</clipPath>
</defs>
</svg>
