<svg width="30" height="30" viewBox="0 0 30 30" fill="none" xmlns="http://www.w3.org/2000/svg">
<path fill-rule="evenodd" clip-rule="evenodd" d="M29.9986 18.9494C30.0182 19.9883 29.8295 21.0207 29.4432 21.9877C29.057 22.9548 28.4808 23.8374 27.7476 24.5851C27.0144 25.3328 26.1386 25.931 25.1703 26.3453C24.2019 26.7597 23.1601 26.9822 22.1044 27H8.97723C6.77134 26.9159 4.66703 26.0657 3.0377 24.6C1.40836 23.1344 0.359355 21.1481 0.0768201 18.9937C-0.205715 16.8393 0.29649 14.6561 1.49432 12.8315C2.69216 11.0068 4.50816 9.6587 6.6201 9.02636C7.45831 7.24523 8.79187 5.73402 10.4665 4.66755C12.1411 3.60108 14.0883 3.02293 16.0829 3C18.6953 3.04798 21.2005 4.03025 23.1304 5.76328C25.0604 7.49632 26.2831 9.86153 26.5701 12.417C27.6278 13.1605 28.4905 14.1411 29.0867 15.2778C29.6829 16.4145 29.9955 17.6745 29.9986 18.9536V18.9494Z" fill="#F6931A"/>
</svg>
