<svg width="30" height="30" viewBox="0 0 30 30" fill="none" xmlns="http://www.w3.org/2000/svg">
<g clip-path="url(#clip0_345_3776)">
<g clip-path="url(#clip1_345_3776)">
<path d="M1.14647 8.25214V8.27786L13.7893 14.0443H13.8022C14.178 14.2192 14.5876 14.3099 15.0022 14.3099C15.4168 14.3099 15.8263 14.2192 16.2022 14.0443H16.215L28.8579 8.27786V8.25214C29.091 8.17511 29.295 8.0284 29.4421 7.83183C29.5892 7.63525 29.6725 7.39827 29.6808 7.15286C29.6728 6.90559 29.5884 6.66687 29.4391 6.4696C29.2898 6.27233 29.083 6.12623 28.8472 6.05143L16.2215 0.265715H16.1979C15.8228 0.0906988 15.4139 0 15 0C14.5861 0 14.1773 0.0906988 13.8022 0.265715H13.7786L1.15718 6.05143C0.921365 6.12623 0.714557 6.27233 0.565262 6.4696C0.415968 6.66687 0.331537 6.90559 0.323608 7.15286C0.33182 7.39827 0.415119 7.63525 0.562263 7.83183C0.709408 8.0284 0.913315 8.17511 1.14647 8.25214Z" fill="white"/>
<path d="M28.8429 13.8965L26.3722 12.7629C22.5 14.535 17.2072 16.9479 17.1429 16.9693C15.7667 17.5164 14.2333 17.5164 12.8572 16.9693C12.7972 16.95 7.51287 14.5393 3.64287 12.765L1.15715 13.8965C0.917634 13.9635 0.706496 14.1068 0.555708 14.3046C0.404921 14.5025 0.322697 14.744 0.321486 14.9928C0.320275 15.2415 0.400143 15.4839 0.548997 15.6831C0.697851 15.8824 0.907584 16.0278 1.14644 16.0972V16.1207L13.7893 21.8893H13.8022C14.178 22.0643 14.5876 22.1549 15.0022 22.1549C15.4167 22.1549 15.8263 22.0643 16.2022 21.8893H16.215L28.8579 16.1207V16.0972C29.097 16.0289 29.3075 15.8846 29.4573 15.686C29.6071 15.4875 29.6881 15.2455 29.6881 14.9968C29.6881 14.7481 29.6071 14.5061 29.4573 14.3076C29.3075 14.109 29.097 13.9647 28.8579 13.8965H28.8429Z" fill="white"/>
<path d="M28.8429 21.7457L26.3722 20.6121C22.5 22.3864 17.2072 24.7993 17.1429 24.8185C15.7672 25.3685 14.2328 25.3685 12.8572 24.8185C12.7972 24.7993 7.51287 22.3885 3.64287 20.6143L1.15715 21.7457C0.917988 21.8135 0.707337 21.9572 0.55695 22.1551C0.406563 22.3531 0.324587 22.5945 0.323378 22.8431C0.322169 23.0917 0.401792 23.3339 0.550247 23.5333C0.698702 23.7327 0.907944 23.8784 1.14644 23.9485V23.9721L13.7893 29.7385H13.8022C14.178 29.9135 14.5876 30.0042 15.0022 30.0042C15.4167 30.0042 15.8263 29.9135 16.2022 29.7385H16.215L28.8579 23.9721V23.9485C29.0967 23.8796 29.3066 23.7349 29.456 23.5362C29.6055 23.3375 29.6862 23.0957 29.6862 22.8471C29.6862 22.5985 29.6055 22.3567 29.456 22.158C29.3066 21.9594 29.0967 21.8147 28.8579 21.7457H28.8429Z" fill="white"/>
</g>
</g>
<defs>
<clipPath id="clip0_345_3776">
<rect width="30" height="30" fill="white"/>
</clipPath>
<clipPath id="clip1_345_3776">
<rect width="30" height="30" fill="white"/>
</clipPath>
</defs>
</svg>
